Coordinates
version=1
nRows=8
nColumns=40
inDegrees=yes

Units are S.I. units (second, meters, Newtons, ...)
If the header above contains a line with 'inDegrees', this indicates whether rotational values are in degrees (yes) or radians (no).

endheader
time	pelvis_tilt	pelvis_list	pelvis_rotation	pelvis_tx	pelvis_ty	pelvis_tz	hip_flexion_r	hip_adduction_r	hip_rotation_r	knee_angle_r	knee_angle_r_beta	ankle_angle_r	subtalar_angle_r	mtp_angle_r	hip_flexion_l	hip_adduction_l	hip_rotation_l	knee_angle_l	knee_angle_l_beta	ankle_angle_l	subtalar_angle_l	mtp_angle_l	lumbar_extension	lumbar_bending	lumbar_rotation	arm_flex_r	arm_add_r	arm_rot_r	elbow_flex_r	pro_sup_r	wrist_flex_r	wrist_dev_r	arm_flex_l	arm_add_l	arm_rot_l	elbow_flex_l	pro_sup_l	wrist_flex_l	wrist_dev_l
      3.60000000	    -15.48428116	      0.20455519	      2.83292425	      0.17404127	      0.87338175	     -1.15306081	     24.43268066	    -26.12156290	    -30.61873112	     18.24492922	      0.31843409	      1.35763503	     -0.74527900	      0.00000000	     26.80915668	    -22.07933884	    -19.79226323	     13.25527019	      0.23134811	     -2.72602568	      2.90803716	      0.00000000	      0.00000000	      0.00000000	      0.00000000	     43.14157804	    -16.44704997	     43.14157804	     76.31942485	     44.26802224	      0.00000000	      0.00000000	     43.14157804	    -16.44704997	     43.14157804	     76.31942485	     44.26802224	      0.00000000	      0.00000000
      3.60500000	    -15.71661282	      0.17031698	      2.85521136	      0.17312783	      0.87265273	     -1.15307170	     24.98652270	    -26.24589949	    -30.55188546	     18.75425881	      0.32732357	      1.43775853	     -0.94713759	      0.00000000	     27.32997837	    -22.14359035	    -19.58922270	     13.64529435	      0.23815531	     -2.53743683	      2.64073003	      0.00000000	      0.00000000	      0.00000000	      0.00000000	     43.16157379	    -16.42381341	     43.16157379	     76.28592057	     44.29797424	      0.00000000	      0.00000000	     43.16157379	    -16.42381341	     43.16157379	     76.28592057	     44.29797424	      0.00000000	      0.00000000
      3.61000000	    -15.88600656	      0.11711311	      2.97520446	      0.17240779	      0.87207393	     -1.15328542	     25.35673861	    -26.38285673	    -30.60395449	     19.18470075	      0.33483619	      1.46950114	     -1.02563777	      0.00000000	     27.78571791	    -22.17899465	    -19.39820829	     13.93699564	      0.24324646	     -2.44044386	      2.49317756	      0.00000000	      0.00000000	      0.00000000	      0.00000000	     43.17760701	    -16.40527483	     43.17760701	     76.25949658	     44.32067377	      0.00000000	      0.00000000	     43.17760701	    -16.40527483	     43.17760701	     76.25949658	     44.32067377	      0.00000000	      0.00000000
      3.61500000	    -16.36197506	      0.26020941	      2.97740490	      0.17146965	      0.87106076	     -1.15324648	     26.13695543	    -26.59399057	    -30.15586732	     19.45838819	      0.33961294	      1.54739024	     -1.27840705	      0.00000000	     28.44833120	    -22.05470292	    -19.35974311	     14.15777640	      0.24709981	     -2.54667084	      2.55613452	      0.00000000	      0.00000000	      0.00000000	      0.00000000	     43.19791179	    -16.38162404	     43.19791179	     76.22506424	     44.35320134	      0.00000000	      0.00000000	     43.19791179	    -16.38162404	     43.19791179	     76.22506424	     44.35320134	      0.00000000	      0.00000000
      3.62000000	    -16.49941702	      0.20957519	      3.05298987	      0.17056447	      0.87048789	     -1.15339173	     26.53401835	    -26.72446309	    -30.17325895	     19.92617999	      0.34777745	      1.57636728	     -1.38716829	      0.00000000	     28.87598764	    -22.10798242	    -19.15066370	     14.48928368	      0.25288571	     -2.41963870	      2.37260869	      0.00000000	      0.00000000	      0.00000000	      0.00000000	     43.21377075	    -16.36339983	     43.21377075	     76.19937097	     44.37489395	      0.00000000	      0.00000000	     43.21377075	    -16.36339983	     43.21377075	     76.19937097	     44.37489395	      0.00000000	      0.00000000
      3.62500000	    -17.01102610	      0.84306287	      2.59311075	      0.16912442	      0.86922399	     -1.15235741	     27.94844692	    -27.24180870	    -28.80879633	     20.57785202	      0.35915127	      1.67505312	     -1.99394772	      0.00000000	     29.20297398	    -21.73472204	    -19.83785146	     14.55964547	      0.25411375	     -2.59876078	      2.28746996	      0.00000000	      0.00000000	      0.00000000	      0.00000000	     43.23900688	    -16.33333790	     43.23900688	     76.15321442	     44.42641491	      0.00000000	      0.00000000	     43.23900688	    -16.33333790	     43.23900688	     76.15321442	     44.42641491	      0.00000000	      0.00000000
      3.63000000	    -17.46470651	      0.95505853	      2.56784227	      0.16794047	      0.86797959	     -1.15225190	     28.88032749	    -27.50338602	    -28.48718881	     21.17429394	      0.36956115	      1.80414962	     -2.16637262	      0.00000000	     29.93497031	    -21.70592478	    -19.83188846	     14.97008564	      0.26127728	     -2.49769504	      2.21969278	      0.00000000	      0.00000000	      0.00000000	      0.00000000	     43.26862939	    -16.29912064	     43.26862939	     76.10435124	     44.46971730	      0.00000000	      0.00000000	     43.26862939	    -16.29912064	     43.26862939	     76.10435124	     44.46971730	      0.00000000	      0.00000000
      3.63500000	    -17.56642074	      0.90419065	      2.64329463	      0.16698656	      0.86745603	     -1.15243417	     29.22229868	    -27.60743651	    -28.42322815	     21.58222593	      0.37668090	      1.83891399	     -2.26015179	      0.00000000	     30.31996681	    -21.76620452	    -19.66005643	     15.28657644	      0.26680109	     -2.39349089	      2.07208560	      0.00000000	      0.00000000	      0.00000000	      0.00000000	     43.28237402	    -16.28367467	     43.28237402	     76.08356311	     44.48520525	      0.00000000	      0.00000000	     43.28237402	    -16.28367467	     43.28237402	     76.08356311	     44.48520525	      0.00000000	      0.00000000
